<svg width="20" height="20" viewBox="0 0 20 20" fill="none" xmlns="http://www.w3.org/2000/svg">
<path d="M12.3552 2.27819C12.7148 2.07279 13.1731 2.19789 13.3786 2.55748L15.8894 6.95201H17.1999C17.5116 6.94795 17.8204 7.01307 18.1042 7.14244C18.3927 7.27402 18.6483 7.46918 18.8513 7.71276C19.0542 7.95628 19.1997 8.2423 19.2771 8.54967C19.3544 8.85714 19.362 9.17849 19.2985 9.48912L19.2976 9.48815L17.7985 16.9852V16.9881C17.6997 17.4727 17.4338 17.9077 17.0476 18.2167C16.6654 18.5223 16.189 18.6849 15.6999 18.6786V18.6796H4.3005V18.6786C3.81118 18.685 3.33424 18.5226 2.95187 18.2167C2.56572 17.9077 2.30068 17.4727 2.20187 16.9881L2.20089 16.9852L0.700893 9.48522L0.70187 9.48424C0.639329 9.17497 0.645374 8.8557 0.722377 8.54967C0.799769 8.24221 0.946165 7.95633 1.14914 7.71276C1.35208 7.46922 1.60681 7.27402 1.89523 7.14244C2.17922 7.01292 2.48852 6.94788 2.8005 6.95201H4.11007L6.62179 2.55748C6.82732 2.1979 7.28561 2.07269 7.64523 2.27819C8.00472 2.48375 8.12902 2.94205 7.92355 3.30162L5.83761 6.95201H14.1618L12.0759 3.30162C11.8705 2.942 11.9956 2.48368 12.3552 2.27819ZM2.78488 8.45201C2.69292 8.45016 2.60196 8.46954 2.51828 8.50768C2.43459 8.54585 2.36038 8.60208 2.30148 8.67272C2.24255 8.74343 2.19992 8.82662 2.17746 8.91588C2.16065 8.98271 2.15574 9.05167 2.16183 9.11998L2.1716 9.18834V9.19127L3.67062 16.6883C3.6993 16.829 3.7773 16.9551 3.88937 17.0448C4.00146 17.1345 4.14136 17.1824 4.28488 17.1796H15.7146C15.8581 17.1824 15.9989 17.1345 16.111 17.0448C16.223 16.9551 16.3002 16.8289 16.3288 16.6883L17.8278 9.19127L17.8288 9.18834C17.8472 9.09825 17.8454 9.00505 17.823 8.91588C17.8005 8.82664 17.7578 8.74342 17.6989 8.67272C17.6401 8.60206 17.5658 8.54588 17.4821 8.50768C17.3984 8.46948 17.3066 8.45015 17.2146 8.45201H2.78488Z" fill="#5A5A5A"/>
</svg>
