<svg width="20" height="20" viewBox="0 0 20 20" fill="none" xmlns="http://www.w3.org/2000/svg">
<path d="M10.8224 2C11.7224 2.0024 12.1791 2.0072 12.5735 2.0184L12.7287 2.024C12.9079 2.0304 13.0847 2.0384 13.2983 2.048C14.1494 2.088 14.7302 2.22239 15.2398 2.41998C15.7678 2.62317 16.2125 2.89835 16.6573 3.34233C17.0643 3.7421 17.379 4.22587 17.5797 4.75986C17.7773 5.26943 17.9117 5.85021 17.9517 6.70216C17.9613 6.91495 17.9692 7.09174 17.9756 7.27173L17.9804 7.42693C17.9924 7.82051 17.9972 8.27728 17.9988 9.17724L17.9996 9.77401V10.822C18.0016 11.4054 17.9955 11.9889 17.9812 12.5723L17.9764 12.7275C17.97 12.9074 17.962 13.0842 17.9524 13.297C17.9125 14.149 17.7765 14.729 17.5797 15.2393C17.379 15.7733 17.0643 16.2571 16.6573 16.6569C16.2576 17.0638 15.7738 17.3786 15.2398 17.5792C14.7302 17.7768 14.1494 17.9112 13.2983 17.9512L12.7287 17.9752L12.5735 17.98C12.1791 17.9912 11.7224 17.9968 10.8224 17.9984L10.2256 17.9992H9.17849C8.59473 18.0013 8.01097 17.9951 7.42738 17.9808L7.27219 17.976C7.08229 17.9688 6.89243 17.9605 6.70262 17.9512C5.85146 17.9112 5.27069 17.7768 4.76032 17.5792C4.22661 17.3785 3.74312 17.0637 3.34359 16.6569C2.93636 16.2572 2.62131 15.7734 2.42043 15.2393C2.22284 14.7298 2.08845 14.149 2.04845 13.297L2.02445 12.7275L2.02045 12.5723C2.00571 11.9889 1.99904 11.4055 2.00046 10.822V9.17724C1.99824 8.59375 2.00411 8.01025 2.01805 7.42693L2.02365 7.27173C2.03005 7.09174 2.03805 6.91495 2.04765 6.70216C2.08765 5.85021 2.22204 5.27024 2.41963 4.75986C2.62098 4.22565 2.93659 3.74186 3.34439 3.34233C3.74369 2.93559 4.22689 2.62083 4.76032 2.41998C5.27069 2.22239 5.85066 2.088 6.70262 2.048C6.91541 2.0384 7.093 2.0304 7.27219 2.024L7.42738 2.0192C8.01071 2.00499 8.5942 1.99885 9.17769 2.0008L10.8224 2ZM10.0001 5.9998C8.93924 5.9998 7.92188 6.4212 7.17177 7.17131C6.42166 7.92142 6.00025 8.93878 6.00025 9.9996C6.00025 11.0604 6.42166 12.0778 7.17177 12.8279C7.92188 13.578 8.93924 13.9994 10.0001 13.9994C11.0609 13.9994 12.0782 13.578 12.8283 12.8279C13.5784 12.0778 13.9998 11.0604 13.9998 9.9996C13.9998 8.93878 13.5784 7.92142 12.8283 7.17131C12.0782 6.4212 11.0609 5.9998 10.0001 5.9998ZM10.0001 7.59972C10.3152 7.59967 10.6273 7.66169 10.9185 7.78224C11.2097 7.9028 11.4743 8.07953 11.6971 8.30234C11.92 8.52516 12.0968 8.78969 12.2175 9.08083C12.3382 9.37198 12.4003 9.68404 12.4003 9.9992C12.4004 10.3144 12.3384 10.6264 12.2178 10.9176C12.0972 11.2088 11.9205 11.4734 11.6977 11.6963C11.4749 11.9192 11.2104 12.096 10.9192 12.2166C10.6281 12.3373 10.316 12.3994 10.0009 12.3995C9.36436 12.3995 8.75395 12.1466 8.30388 11.6966C7.85382 11.2465 7.60097 10.6361 7.60097 9.9996C7.60097 9.36311 7.85382 8.75269 8.30388 8.30263C8.75395 7.85256 9.36436 7.59972 10.0009 7.59972M14.2006 4.79986C13.9354 4.79986 13.6811 4.90521 13.4936 5.09274C13.306 5.28026 13.2007 5.53461 13.2007 5.79981C13.2007 6.06501 13.306 6.31935 13.4936 6.50688C13.6811 6.69441 13.9354 6.79976 14.2006 6.79976C14.4658 6.79976 14.7202 6.69441 14.9077 6.50688C15.0952 6.31935 15.2006 6.06501 15.2006 5.79981C15.2006 5.53461 15.0952 5.28026 14.9077 5.09274C14.7202 4.90521 14.4658 4.79986 14.2006 4.79986Z" fill="#3340BA"/>
</svg>
