<svg width="54" height="50" viewBox="0 0 54 50" fill="none" xmlns="http://www.w3.org/2000/svg">
<mask id="path-1-outside-1_23_2" maskUnits="userSpaceOnUse" x="-0.38916" y="0" width="54" height="50" fill="black">
<rect fill="white" x="-0.38916" width="54" height="50"/>
<path d="M50.0756 28.84C48.2511 40.2694 38.4151 49 26.5546 49C14.694 49 4.85806 40.2694 3.03346 28.84H4.96625C6.77046 39.2039 15.7493 47.08 26.5546 47.08C37.3598 47.08 46.3387 39.2039 48.1429 28.84H50.0756Z"/>
<path d="M26.5546 1C38.4151 1 48.2511 9.73056 50.0756 21.16H48.1429C46.3387 10.7961 37.3598 2.92 26.5546 2.92C15.7493 2.92 6.77046 10.7961 4.96625 21.16H3.03346C4.85806 9.73056 14.694 1 26.5546 1Z"/>
<path d="M49.3339 25.9732L51.6108 31.3218L45.8741 30.6339L49.3339 25.9732Z"/>
<path d="M3.94958 23.9759L1.61084 18.6544L7.35514 19.2749L3.94958 23.9759Z"/>
<path d="M26.2221 15.976C27.5558 15.976 28.7757 16.1972 29.8817 16.6396C30.0793 16.7175 30.2722 16.8009 30.4607 16.8895L29.2328 19.5141C29.0346 19.4048 28.8281 19.3066 28.613 19.2199C27.8811 18.925 27.0841 18.7776 26.2221 18.7776C25.3601 18.7776 24.5631 18.925 23.8313 19.2199C23.0994 19.5148 22.4652 19.9409 21.9284 20.4979C21.3917 21.0386 20.9688 21.6777 20.6598 22.4149C20.367 23.1358 20.2207 23.9387 20.2207 24.8234C20.2207 25.6917 20.367 26.4945 20.6598 27.2318C20.9688 27.9691 21.3917 28.6163 21.9284 29.1734C22.4651 29.714 23.0994 30.1317 23.8313 30.4266C24.5631 30.7215 25.3601 30.8691 26.2221 30.8691C27.0841 30.8691 27.8811 30.7215 28.613 30.4266C29.3449 30.1317 29.9793 29.714 30.516 29.1734C31.0527 28.6163 31.4675 27.9691 31.7603 27.2318C32.0693 26.4945 32.2237 25.6917 32.2238 24.8234C32.2238 24.4781 32.1999 24.1453 32.1528 23.8249H35.3709C35.4031 24.1508 35.4196 24.4836 35.4196 24.8234C35.4196 26.1013 35.1919 27.2809 34.7365 28.3623C34.2811 29.4436 33.6388 30.3775 32.8093 31.1639C31.9798 31.9503 31.0039 32.5648 29.8817 33.0072C29.6049 33.1179 29.3214 33.2146 29.0314 33.2976C29.1711 33.4436 29.3082 33.5762 29.4426 33.6953C29.8654 34.0721 30.272 34.3424 30.6623 34.5063C31.0526 34.6701 31.4593 34.7521 31.8822 34.7521C33.0044 34.7521 33.9804 34.2933 34.8099 33.3758L36.2736 35.1453C35.1351 36.5051 33.6469 37.1851 31.8091 37.1851C31.2073 37.1851 30.6218 37.1113 30.0525 36.9638C29.4995 36.8327 28.9465 36.6034 28.3935 36.2757C27.8568 35.9644 27.2957 35.5467 26.7102 35.0224C26.2587 34.6308 25.7736 34.1658 25.2544 33.628C24.2982 33.5444 23.401 33.3376 22.5628 33.0072C21.4405 32.5648 20.4646 31.9503 19.6351 31.1639C18.8056 30.3611 18.1631 29.4272 17.7077 28.3623C17.2523 27.2809 17.0246 26.1013 17.0246 24.8234C17.0246 23.5455 17.2523 22.374 17.7077 21.3091C18.1631 20.2277 18.8056 19.2937 19.6351 18.5073C20.4646 17.7045 21.4405 17.0819 22.5628 16.6396C23.685 16.1972 24.9048 15.976 26.2221 15.976Z"/>
<path d="M38.5934 19.7104L37.1407 16.6384C37.1091 16.5715 37.0422 16.5289 36.9687 16.5289H31.7193C31.6458 16.5289 31.5789 16.5715 31.5472 16.6384L30.0946 19.7104C30.0699 19.7626 30.0699 19.8233 30.0946 19.8755L31.5472 22.9475C31.5789 23.0144 31.6458 23.0569 31.7193 23.0569H36.9687C37.0422 23.0569 37.1091 23.0144 37.1407 22.9475L38.5934 19.8755C38.6181 19.8233 38.6181 19.7626 38.5934 19.7104Z"/>
<path d="M32.4159 18.7638C32.607 18.7638 32.7737 18.8017 32.916 18.8775C33.0583 18.9533 33.1681 19.0659 33.2454 19.2154C33.3247 19.3629 33.3643 19.5421 33.3643 19.753V20.9449H32.9679V20.392H31.8578V20.9449H31.4675V19.753C31.4675 19.5421 31.5061 19.3629 31.5833 19.2154C31.6626 19.0659 31.7734 18.9533 31.9158 18.8775C32.0581 18.8017 32.2248 18.7638 32.4159 18.7638ZM32.9679 20.0571V19.7161C32.9679 19.5175 32.9191 19.368 32.8215 19.2676C32.7239 19.1652 32.5877 19.114 32.4128 19.114C32.238 19.114 32.1018 19.1652 32.0042 19.2676C31.9066 19.368 31.8578 19.5175 31.8578 19.7161V20.0571H32.9679Z"/>
<path d="M34.7972 18.7945C34.9822 18.7945 35.1428 18.8253 35.279 18.8867C35.4172 18.9481 35.523 19.0362 35.5961 19.1509C35.6693 19.2656 35.7059 19.4018 35.7059 19.5595C35.7059 19.7151 35.6693 19.8513 35.5961 19.968C35.523 20.0827 35.4172 20.1708 35.279 20.2322C35.1428 20.2937 34.9822 20.3244 34.7972 20.3244H34.3153V20.9449H33.9189V18.7945H34.7972ZM34.7789 19.9865C34.9517 19.9865 35.0828 19.9496 35.1723 19.8759C35.2617 19.8022 35.3064 19.6967 35.3064 19.5595C35.3064 19.4222 35.2617 19.3168 35.1723 19.243C35.0828 19.1693 34.9517 19.1325 34.7789 19.1325H34.3153V19.9865H34.7789Z"/>
<path d="M36.727 19.1294V20.6101H37.1204V20.9449H35.9402V20.6101H36.3336V19.1294H35.9402V18.7945H37.1204V19.1294H36.727Z"/>
</mask>
<path d="M50.0756 28.84C48.2511 40.2694 38.4151 49 26.5546 49C14.694 49 4.85806 40.2694 3.03346 28.84H4.96625C6.77046 39.2039 15.7493 47.08 26.5546 47.08C37.3598 47.08 46.3387 39.2039 48.1429 28.84H50.0756Z" fill="url(#paint0_linear_23_2)"/>
<path d="M26.5546 1C38.4151 1 48.2511 9.73056 50.0756 21.16H48.1429C46.3387 10.7961 37.3598 2.92 26.5546 2.92C15.7493 2.92 6.77046 10.7961 4.96625 21.16H3.03346C4.85806 9.73056 14.694 1 26.5546 1Z" fill="url(#paint1_linear_23_2)"/>
<path d="M49.3339 25.9732L51.6108 31.3218L45.8741 30.6339L49.3339 25.9732Z" fill="url(#paint2_linear_23_2)"/>
<path d="M3.94958 23.9759L1.61084 18.6544L7.35514 19.2749L3.94958 23.9759Z" fill="url(#paint3_linear_23_2)"/>
<path d="M26.2221 15.976C27.5558 15.976 28.7757 16.1972 29.8817 16.6396C30.0793 16.7175 30.2722 16.8009 30.4607 16.8895L29.2328 19.5141C29.0346 19.4048 28.8281 19.3066 28.613 19.2199C27.8811 18.925 27.0841 18.7776 26.2221 18.7776C25.3601 18.7776 24.5631 18.925 23.8313 19.2199C23.0994 19.5148 22.4652 19.9409 21.9284 20.4979C21.3917 21.0386 20.9688 21.6777 20.6598 22.4149C20.367 23.1358 20.2207 23.9387 20.2207 24.8234C20.2207 25.6917 20.367 26.4945 20.6598 27.2318C20.9688 27.9691 21.3917 28.6163 21.9284 29.1734C22.4651 29.714 23.0994 30.1317 23.8313 30.4266C24.5631 30.7215 25.3601 30.8691 26.2221 30.8691C27.0841 30.8691 27.8811 30.7215 28.613 30.4266C29.3449 30.1317 29.9793 29.714 30.516 29.1734C31.0527 28.6163 31.4675 27.9691 31.7603 27.2318C32.0693 26.4945 32.2237 25.6917 32.2238 24.8234C32.2238 24.4781 32.1999 24.1453 32.1528 23.8249H35.3709C35.4031 24.1508 35.4196 24.4836 35.4196 24.8234C35.4196 26.1013 35.1919 27.2809 34.7365 28.3623C34.2811 29.4436 33.6388 30.3775 32.8093 31.1639C31.9798 31.9503 31.0039 32.5648 29.8817 33.0072C29.6049 33.1179 29.3214 33.2146 29.0314 33.2976C29.1711 33.4436 29.3082 33.5762 29.4426 33.6953C29.8654 34.0721 30.272 34.3424 30.6623 34.5063C31.0526 34.6701 31.4593 34.7521 31.8822 34.7521C33.0044 34.7521 33.9804 34.2933 34.8099 33.3758L36.2736 35.1453C35.1351 36.5051 33.6469 37.1851 31.8091 37.1851C31.2073 37.1851 30.6218 37.1113 30.0525 36.9638C29.4995 36.8327 28.9465 36.6034 28.3935 36.2757C27.8568 35.9644 27.2957 35.5467 26.7102 35.0224C26.2587 34.6308 25.7736 34.1658 25.2544 33.628C24.2982 33.5444 23.401 33.3376 22.5628 33.0072C21.4405 32.5648 20.4646 31.9503 19.6351 31.1639C18.8056 30.3611 18.1631 29.4272 17.7077 28.3623C17.2523 27.2809 17.0246 26.1013 17.0246 24.8234C17.0246 23.5455 17.2523 22.374 17.7077 21.3091C18.1631 20.2277 18.8056 19.2937 19.6351 18.5073C20.4646 17.7045 21.4405 17.0819 22.5628 16.6396C23.685 16.1972 24.9048 15.976 26.2221 15.976Z" fill="url(#paint4_linear_23_2)"/>
<path d="M32.4159 18.7638C32.607 18.7638 32.7737 18.8017 32.916 18.8775C33.0583 18.9533 33.1681 19.0659 33.2454 19.2154C33.3247 19.3629 33.3643 19.5421 33.3643 19.753V20.9449H32.9679V20.392H31.8578V20.9449H31.4675V19.753C31.4675 19.5421 31.5061 19.3629 31.5833 19.2154C31.6626 19.0659 31.7734 18.9533 31.9158 18.8775C32.0581 18.8017 32.2248 18.7638 32.4159 18.7638ZM32.9679 20.0571V19.7161C32.9679 19.5175 32.9191 19.368 32.8215 19.2676C32.7239 19.1652 32.5877 19.114 32.4128 19.114C32.238 19.114 32.1018 19.1652 32.0042 19.2676C31.9066 19.368 31.8578 19.5175 31.8578 19.7161V20.0571H32.9679Z" fill="url(#paint5_linear_23_2)"/>
<path d="M34.7972 18.7945C34.9822 18.7945 35.1428 18.8253 35.279 18.8867C35.4172 18.9481 35.523 19.0362 35.5961 19.1509C35.6693 19.2656 35.7059 19.4018 35.7059 19.5595C35.7059 19.7151 35.6693 19.8513 35.5961 19.968C35.523 20.0827 35.4172 20.1708 35.279 20.2322C35.1428 20.2937 34.9822 20.3244 34.7972 20.3244H34.3153V20.9449H33.9189V18.7945H34.7972ZM34.7789 19.9865C34.9517 19.9865 35.0828 19.9496 35.1723 19.8759C35.2617 19.8022 35.3064 19.6967 35.3064 19.5595C35.3064 19.4222 35.2617 19.3168 35.1723 19.243C35.0828 19.1693 34.9517 19.1325 34.7789 19.1325H34.3153V19.9865H34.7789Z" fill="url(#paint6_linear_23_2)"/>
<path d="M36.727 19.1294V20.6101H37.1204V20.9449H35.9402V20.6101H36.3336V19.1294H35.9402V18.7945H37.1204V19.1294H36.727Z" fill="url(#paint7_linear_23_2)"/>
<path d="M50.0756 28.84C48.2511 40.2694 38.4151 49 26.5546 49C14.694 49 4.85806 40.2694 3.03346 28.84H4.96625C6.77046 39.2039 15.7493 47.08 26.5546 47.08C37.3598 47.08 46.3387 39.2039 48.1429 28.84H50.0756Z" stroke="url(#paint8_linear_23_2)" stroke-width="2" mask="url(#path-1-outside-1_23_2)"/>
<path d="M26.5546 1C38.4151 1 48.2511 9.73056 50.0756 21.16H48.1429C46.3387 10.7961 37.3598 2.92 26.5546 2.92C15.7493 2.92 6.77046 10.7961 4.96625 21.16H3.03346C4.85806 9.73056 14.694 1 26.5546 1Z" stroke="url(#paint9_linear_23_2)" stroke-width="2" mask="url(#path-1-outside-1_23_2)"/>
<path d="M49.3339 25.9732L51.6108 31.3218L45.8741 30.6339L49.3339 25.9732Z" stroke="url(#paint10_linear_23_2)" stroke-width="2" mask="url(#path-1-outside-1_23_2)"/>
<path d="M3.94958 23.9759L1.61084 18.6544L7.35514 19.2749L3.94958 23.9759Z" stroke="url(#paint11_linear_23_2)" stroke-width="2" mask="url(#path-1-outside-1_23_2)"/>
<path d="M26.2221 15.976C27.5558 15.976 28.7757 16.1972 29.8817 16.6396C30.0793 16.7175 30.2722 16.8009 30.4607 16.8895L29.2328 19.5141C29.0346 19.4048 28.8281 19.3066 28.613 19.2199C27.8811 18.925 27.0841 18.7776 26.2221 18.7776C25.3601 18.7776 24.5631 18.925 23.8313 19.2199C23.0994 19.5148 22.4652 19.9409 21.9284 20.4979C21.3917 21.0386 20.9688 21.6777 20.6598 22.4149C20.367 23.1358 20.2207 23.9387 20.2207 24.8234C20.2207 25.6917 20.367 26.4945 20.6598 27.2318C20.9688 27.9691 21.3917 28.6163 21.9284 29.1734C22.4651 29.714 23.0994 30.1317 23.8313 30.4266C24.5631 30.7215 25.3601 30.8691 26.2221 30.8691C27.0841 30.8691 27.8811 30.7215 28.613 30.4266C29.3449 30.1317 29.9793 29.714 30.516 29.1734C31.0527 28.6163 31.4675 27.9691 31.7603 27.2318C32.0693 26.4945 32.2237 25.6917 32.2238 24.8234C32.2238 24.4781 32.1999 24.1453 32.1528 23.8249H35.3709C35.4031 24.1508 35.4196 24.4836 35.4196 24.8234C35.4196 26.1013 35.1919 27.2809 34.7365 28.3623C34.2811 29.4436 33.6388 30.3775 32.8093 31.1639C31.9798 31.9503 31.0039 32.5648 29.8817 33.0072C29.6049 33.1179 29.3214 33.2146 29.0314 33.2976C29.1711 33.4436 29.3082 33.5762 29.4426 33.6953C29.8654 34.0721 30.272 34.3424 30.6623 34.5063C31.0526 34.6701 31.4593 34.7521 31.8822 34.7521C33.0044 34.7521 33.9804 34.2933 34.8099 33.3758L36.2736 35.1453C35.1351 36.5051 33.6469 37.1851 31.8091 37.1851C31.2073 37.1851 30.6218 37.1113 30.0525 36.9638C29.4995 36.8327 28.9465 36.6034 28.3935 36.2757C27.8568 35.9644 27.2957 35.5467 26.7102 35.0224C26.2587 34.6308 25.7736 34.1658 25.2544 33.628C24.2982 33.5444 23.401 33.3376 22.5628 33.0072C21.4405 32.5648 20.4646 31.9503 19.6351 31.1639C18.8056 30.3611 18.1631 29.4272 17.7077 28.3623C17.2523 27.2809 17.0246 26.1013 17.0246 24.8234C17.0246 23.5455 17.2523 22.374 17.7077 21.3091C18.1631 20.2277 18.8056 19.2937 19.6351 18.5073C20.4646 17.7045 21.4405 17.0819 22.5628 16.6396C23.685 16.1972 24.9048 15.976 26.2221 15.976Z" stroke="url(#paint12_linear_23_2)" stroke-width="2" mask="url(#path-1-outside-1_23_2)"/>
<path d="M38.5934 19.7104L37.1407 16.6384C37.1091 16.5715 37.0422 16.5289 36.9687 16.5289H31.7193C31.6458 16.5289 31.5789 16.5715 31.5472 16.6384L30.0946 19.7104C30.0699 19.7626 30.0699 19.8233 30.0946 19.8755L31.5472 22.9475C31.5789 23.0144 31.6458 23.0569 31.7193 23.0569H36.9687C37.0422 23.0569 37.1091 23.0144 37.1407 22.9475L38.5934 19.8755C38.6181 19.8233 38.6181 19.7626 38.5934 19.7104Z" stroke="url(#paint13_linear_23_2)" stroke-width="2" mask="url(#path-1-outside-1_23_2)"/>
<path d="M32.4159 18.7638C32.607 18.7638 32.7737 18.8017 32.916 18.8775C33.0583 18.9533 33.1681 19.0659 33.2454 19.2154C33.3247 19.3629 33.3643 19.5421 33.3643 19.753V20.9449H32.9679V20.392H31.8578V20.9449H31.4675V19.753C31.4675 19.5421 31.5061 19.3629 31.5833 19.2154C31.6626 19.0659 31.7734 18.9533 31.9158 18.8775C32.0581 18.8017 32.2248 18.7638 32.4159 18.7638ZM32.9679 20.0571V19.7161C32.9679 19.5175 32.9191 19.368 32.8215 19.2676C32.7239 19.1652 32.5877 19.114 32.4128 19.114C32.238 19.114 32.1018 19.1652 32.0042 19.2676C31.9066 19.368 31.8578 19.5175 31.8578 19.7161V20.0571H32.9679Z" stroke="url(#paint14_linear_23_2)" stroke-width="2" mask="url(#path-1-outside-1_23_2)"/>
<path d="M34.7972 18.7945C34.9822 18.7945 35.1428 18.8253 35.279 18.8867C35.4172 18.9481 35.523 19.0362 35.5961 19.1509C35.6693 19.2656 35.7059 19.4018 35.7059 19.5595C35.7059 19.7151 35.6693 19.8513 35.5961 19.968C35.523 20.0827 35.4172 20.1708 35.279 20.2322C35.1428 20.2937 34.9822 20.3244 34.7972 20.3244H34.3153V20.9449H33.9189V18.7945H34.7972ZM34.7789 19.9865C34.9517 19.9865 35.0828 19.9496 35.1723 19.8759C35.2617 19.8022 35.3064 19.6967 35.3064 19.5595C35.3064 19.4222 35.2617 19.3168 35.1723 19.243C35.0828 19.1693 34.9517 19.1325 34.7789 19.1325H34.3153V19.9865H34.7789Z" stroke="url(#paint15_linear_23_2)" stroke-width="2" mask="url(#path-1-outside-1_23_2)"/>
<path d="M36.727 19.1294V20.6101H37.1204V20.9449H35.9402V20.6101H36.3336V19.1294H35.9402V18.7945H37.1204V19.1294H36.727Z" stroke="url(#paint16_linear_23_2)" stroke-width="2" mask="url(#path-1-outside-1_23_2)"/>
<defs>
<linearGradient id="paint0_linear_23_2" x1="34.2487" y1="17.8729" x2="34.2487" y2="21.7129" gradientUnits="userSpaceOnUse">
<stop/>
<stop offset="1" stop-color="#565656"/>
</linearGradient>
<linearGradient id="paint1_linear_23_2" x1="34.2487" y1="17.8729" x2="34.2487" y2="21.7129" gradientUnits="userSpaceOnUse">
<stop/>
<stop offset="1" stop-color="#565656"/>
</linearGradient>
<linearGradient id="paint2_linear_23_2" x1="26.6108" y1="1" x2="26.6108" y2="49" gradientUnits="userSpaceOnUse">
<stop/>
<stop offset="1" stop-color="#4D4D4D"/>
</linearGradient>
<linearGradient id="paint3_linear_23_2" x1="26.6108" y1="1" x2="26.6108" y2="49" gradientUnits="userSpaceOnUse">
<stop/>
<stop offset="1" stop-color="#6D6D6D"/>
</linearGradient>
<linearGradient id="paint4_linear_23_2" x1="34.2487" y1="17.8729" x2="34.2487" y2="21.7129" gradientUnits="userSpaceOnUse">
<stop/>
<stop offset="1" stop-color="#565656"/>
</linearGradient>
<linearGradient id="paint5_linear_23_2" x1="34.2487" y1="17.8729" x2="34.2487" y2="21.7129" gradientUnits="userSpaceOnUse">
<stop/>
<stop offset="1" stop-color="#565656"/>
</linearGradient>
<linearGradient id="paint6_linear_23_2" x1="34.2487" y1="17.8729" x2="34.2487" y2="21.7129" gradientUnits="userSpaceOnUse">
<stop/>
<stop offset="1" stop-color="#565656"/>
</linearGradient>
<linearGradient id="paint7_linear_23_2" x1="34.2487" y1="17.8729" x2="34.2487" y2="21.7129" gradientUnits="userSpaceOnUse">
<stop/>
<stop offset="1" stop-color="#565656"/>
</linearGradient>
<linearGradient id="paint8_linear_23_2" x1="34.2487" y1="17.8729" x2="34.2487" y2="21.7129" gradientUnits="userSpaceOnUse">
<stop/>
<stop offset="1" stop-color="#606060"/>
</linearGradient>
<linearGradient id="paint9_linear_23_2" x1="34.2487" y1="17.8729" x2="34.2487" y2="21.7129" gradientUnits="userSpaceOnUse">
<stop/>
<stop offset="1" stop-color="#606060"/>
</linearGradient>
<linearGradient id="paint10_linear_23_2" x1="34.2487" y1="17.8729" x2="34.2487" y2="21.7129" gradientUnits="userSpaceOnUse">
<stop/>
<stop offset="1" stop-color="#606060"/>
</linearGradient>
<linearGradient id="paint11_linear_23_2" x1="34.2487" y1="17.8729" x2="34.2487" y2="21.7129" gradientUnits="userSpaceOnUse">
<stop/>
<stop offset="1" stop-color="#606060"/>
</linearGradient>
<linearGradient id="paint12_linear_23_2" x1="34.2487" y1="17.8729" x2="34.2487" y2="21.7129" gradientUnits="userSpaceOnUse">
<stop/>
<stop offset="1" stop-color="#606060"/>
</linearGradient>
<linearGradient id="paint13_linear_23_2" x1="34.2487" y1="17.8729" x2="34.2487" y2="21.7129" gradientUnits="userSpaceOnUse">
<stop/>
<stop offset="1" stop-color="#606060"/>
</linearGradient>
<linearGradient id="paint14_linear_23_2" x1="34.2487" y1="17.8729" x2="34.2487" y2="21.7129" gradientUnits="userSpaceOnUse">
<stop/>
<stop offset="1" stop-color="#606060"/>
</linearGradient>
<linearGradient id="paint15_linear_23_2" x1="34.2487" y1="17.8729" x2="34.2487" y2="21.7129" gradientUnits="userSpaceOnUse">
<stop/>
<stop offset="1" stop-color="#606060"/>
</linearGradient>
<linearGradient id="paint16_linear_23_2" x1="34.2487" y1="17.8729" x2="34.2487" y2="21.7129" gradientUnits="userSpaceOnUse">
<stop/>
<stop offset="1" stop-color="#606060"/>
</linearGradient>
</defs>
</svg>
